solid tetrahedron_ASCII.stl
facet normal 0.000000 -0.820000 0.290000
  outer loop
    vertex 0.000000 0.000000 0.000000
    vertex 1.000000 0.000000 0.000000
    vertex 0.500000 0.290000 0.820000
  endloop
endfacet
facet normal 0.713400 0.410000 0.290000
  outer loop
    vertex 1.000000 0.000000 0.000000
    vertex 0.500000 0.870000 0.000000
    vertex 0.500000 0.290000 0.820000
  endloop
endfacet
facet normal 0.713400 -0.410000 -0.290000
  outer loop
    vertex 0.000000 0.000000 0.000000
    vertex 0.500000 0.870000 0.000000
    vertex 0.500000 0.290000 0.820000
  endloop
endfacet
facet normal 0.000000 0.000000 0.870000
  outer loop
    vertex 0.000000 0.000000 0.000000
    vertex 1.000000 0.000000 0.000000
    vertex 0.500000 0.870000 0.000000
  endloop
endfacet
endsolid tetrahedron_ASCII.stl
